<?xml version="1.0" encoding="UTF-8"?>
<svg version="1.1" xmlns="http://www.w3.org/2000/svg" width="274" height="274">
<path d="M0 0 C0.99169189 0.23348145 0.99169189 0.23348145 2.00341797 0.47167969 C36.50916476 8.68616253 66.24132645 31.12091519 85 61 C87.15086069 64.5998088 89.11859156 68.25299327 91 72 C91.49113281 72.94746094 91.98226563 73.89492187 92.48828125 74.87109375 C95.71548715 81.41723491 98.11729222 88.02995904 100.25 95 C100.49621094 95.79398193 100.74242187 96.58796387 100.99609375 97.40600586 C104.49614918 109.31900529 105.41149582 121.18894217 105.375 133.5625 C105.37418427 134.61090057 105.37418427 134.61090057 105.37335205 135.68048096 C105.33127209 147.49619783 104.2769106 158.61310975 101 170 C100.67854004 171.1461377 100.67854004 171.1461377 100.35058594 172.31542969 C91.19868103 204.14061284 70.62767659 231.72751649 43 250 C42.12601563 250.58136719 41.25203125 251.16273438 40.3515625 251.76171875 C11.46326421 269.76633043 -26.97900241 276.16123295 -60.2109375 268.96875 C-62.08652344 268.48921875 -62.08652344 268.48921875 -64 268 C-64.67708008 267.83371094 -65.35416016 267.66742188 -66.05175781 267.49609375 C-86.82722128 262.30943158 -104.80358199 253.02044495 -121 239 C-121.99257812 238.14277344 -122.98515625 237.28554687 -124.0078125 236.40234375 C-145.0639983 217.86198821 -158.85197134 193.96888023 -166 167 C-166.34160156 165.72640625 -166.68320313 164.4528125 -167.03515625 163.140625 C-171.56820485 142.47835696 -170.83788478 118.28598319 -165 98 C-164.78569336 97.2359082 -164.57138672 96.47181641 -164.35058594 95.68457031 C-154.85171363 62.6528295 -132.46255651 32.35706317 -102.34375 15.34375 C-71.42487611 -1.68340856 -34.71392099 -8.83104919 0 0 Z " fill="#010101" transform="translate(169,3)"/>
<path d="M0 0 C0.99169189 0.23348145 0.99169189 0.23348145 2.00341797 0.47167969 C36.50916476 8.68616253 66.24132645 31.12091519 85 61 C87.15086069 64.5998088 89.11859156 68.25299327 91 72 C91.49113281 72.94746094 91.98226563 73.89492187 92.48828125 74.87109375 C95.71548715 81.41723491 98.11729222 88.02995904 100.25 95 C100.49621094 95.79398193 100.74242187 96.58796387 100.99609375 97.40600586 C104.49614918 109.31900529 105.41149582 121.18894217 105.375 133.5625 C105.37418427 134.61090057 105.37418427 134.61090057 105.37335205 135.68048096 C105.33127209 147.49619783 104.2769106 158.61310975 101 170 C100.67854004 171.1461377 100.67854004 171.1461377 100.35058594 172.31542969 C91.19868103 204.14061284 70.62767659 231.72751649 43 250 C42.12601563 250.58136719 41.25203125 251.16273438 40.3515625 251.76171875 C11.46326421 269.76633043 -26.97900241 276.16123295 -60.2109375 268.96875 C-62.08652344 268.48921875 -62.08652344 268.48921875 -64 268 C-64.67708008 267.83371094 -65.35416016 267.66742188 -66.05175781 267.49609375 C-86.82722128 262.30943158 -104.80358199 253.02044495 -121 239 C-121.99257812 238.14277344 -122.98515625 237.28554687 -124.0078125 236.40234375 C-145.0639983 217.86198821 -158.85197134 193.96888023 -166 167 C-166.34160156 165.72640625 -166.68320313 164.4528125 -167.03515625 163.140625 C-171.56820485 142.47835696 -170.83788478 118.28598319 -165 98 C-164.78569336 97.2359082 -164.57138672 96.47181641 -164.35058594 95.68457031 C-154.85171363 62.6528295 -132.46255651 32.35706317 -102.34375 15.34375 C-71.42487611 -1.68340856 -34.71392099 -8.83104919 0 0 Z M-102 50 C-102.72832031 50.56976563 -103.45664063 51.13953125 -104.20703125 51.7265625 C-116.15344071 61.49894068 -124.43066727 75.22353525 -131 89 C-131.61101562 90.2684375 -131.61101562 90.2684375 -132.234375 91.5625 C-133.30959803 94.01070012 -134.17434428 96.45668551 -135 99 C-135.37125 100.05445312 -135.7425 101.10890625 -136.125 102.1953125 C-142.1592419 122.60278336 -141.7671998 149.18172763 -134 169 C-133.72704102 169.71269043 -133.45408203 170.42538086 -133.17285156 171.15966797 C-128.22693601 183.80772806 -121.73311363 194.6058824 -113 205 C-112.44570312 205.68964844 -111.89140625 206.37929687 -111.3203125 207.08984375 C-95.69850562 225.96307934 -70.26997807 239.04907826 -46 242 C-41.40119323 242.25615234 -36.81651775 242.33026091 -32.21240234 242.31567383 C-30.13455601 242.31251453 -28.05814037 242.33606246 -25.98046875 242.36132812 C-17.31318597 242.40247843 -9.37063375 241.37028225 -1 239 C-0.29311035 238.81187744 0.4137793 238.62375488 1.14208984 238.42993164 C16.51086166 234.18476941 30.15008097 226.62338317 42 216 C42.67933594 215.46246094 43.35867187 214.92492187 44.05859375 214.37109375 C63.09790666 199.08601156 76.50603701 171.94648484 79.23449707 147.9364624 C79.58522095 143.16584341 79.57293267 138.40522759 79.5 133.625 C79.49446106 132.90765686 79.48892212 132.19031372 79.48321533 131.45123291 C79.3818366 120.22377232 78.54070311 109.7106269 75 99 C74.69449219 98.04867187 74.69449219 98.04867187 74.3828125 97.078125 C65.13098953 68.97999599 43.88350542 47.15481024 17.88574219 33.92529297 C13.03320382 31.54425718 8.14743124 29.63946288 3 28 C1.85789063 27.608125 0.71578125 27.21625 -0.4609375 26.8125 C-35.73682216 15.94741717 -74.46452534 26.85423869 -102 50 Z " fill="#30064F" transform="translate(169,3)"/>
<path d="M0 0 C0.99169189 0.23348145 0.99169189 0.23348145 2.00341797 0.47167969 C36.50916476 8.68616253 66.24132645 31.12091519 85 61 C87.15086069 64.5998088 89.11859156 68.25299327 91 72 C91.49113281 72.94746094 91.98226563 73.89492187 92.48828125 74.87109375 C95.71548715 81.41723491 98.11729222 88.02995904 100.25 95 C100.49621094 95.79398193 100.74242187 96.58796387 100.99609375 97.40600586 C104.49614918 109.31900529 105.41149582 121.18894217 105.375 133.5625 C105.37418427 134.61090057 105.37418427 134.61090057 105.37335205 135.68048096 C105.33127209 147.49619783 104.2769106 158.61310975 101 170 C100.67854004 171.1461377 100.67854004 171.1461377 100.35058594 172.31542969 C91.19868103 204.14061284 70.62767659 231.72751649 43 250 C42.12601563 250.58136719 41.25203125 251.16273438 40.3515625 251.76171875 C11.46326421 269.76633043 -26.97900241 276.16123295 -60.2109375 268.96875 C-62.08652344 268.48921875 -62.08652344 268.48921875 -64 268 C-64.67708008 267.83371094 -65.35416016 267.66742188 -66.05175781 267.49609375 C-86.82722128 262.30943158 -104.80358199 253.02044495 -121 239 C-121.99257812 238.14277344 -122.98515625 237.28554687 -124.0078125 236.40234375 C-145.0639983 217.86198821 -158.85197134 193.96888023 -166 167 C-166.34160156 165.72640625 -166.68320313 164.4528125 -167.03515625 163.140625 C-171.56820485 142.47835696 -170.83788478 118.28598319 -165 98 C-164.78569336 97.2359082 -164.57138672 96.47181641 -164.35058594 95.68457031 C-154.85171363 62.6528295 -132.46255651 32.35706317 -102.34375 15.34375 C-71.42487611 -1.68340856 -34.71392099 -8.83104919 0 0 Z M-59 5 C-59.71236816 5.17692383 -60.42473633 5.35384766 -61.15869141 5.53613281 C-95.35264588 14.30614373 -124.24014903 35.73627929 -142.6953125 65.7578125 C-144.23811191 68.46376957 -145.63977116 71.19777994 -147 74 C-147.57492188 75.17820312 -148.14984375 76.35640625 -148.7421875 77.5703125 C-153.51745326 87.71743149 -156.56989783 98.0695611 -159 109 C-159.2475 110.09570312 -159.495 111.19140625 -159.75 112.3203125 C-165.46063684 142.69772791 -157.6797576 177.90322783 -140.6484375 203.62890625 C-135.64725992 210.92212704 -130.11605074 217.60787753 -124 224 C-123.278125 224.79664063 -122.55625 225.59328125 -121.8125 226.4140625 C-99.23329309 250.4426104 -65.74410622 263.36548715 -33.17407227 264.5234375 C2.52436222 264.99035073 35.22541514 251.34038697 61 227 C62.20076172 225.91332031 62.20076172 225.91332031 63.42578125 224.8046875 C74.88459087 214.02207558 83.85495613 200.44865514 90 186 C90.29745117 185.31276855 90.59490234 184.62553711 90.90136719 183.91748047 C101.46724684 159.01534719 104.95202516 130.35898129 98 104 C97.80132324 103.22205078 97.60264648 102.44410156 97.39794922 101.64257812 C88.69344519 68.23293122 67.8767341 38.60698428 37.98779297 20.80126953 C8.63950956 3.86296033 -25.69271847 -3.28475562 -59 5 Z " fill="#FAF8FB" transform="translate(169,3)"/>
<path d="M0 0 C0.97453125 0.27287842 0.97453125 0.27287842 1.96875 0.55126953 C30.4237774 8.57575937 54.44136761 28.53298807 68.9609375 54.12890625 C74.03601725 63.49482139 77.66979835 73.61355238 80 84 C80.16701416 84.69303223 80.33402832 85.38606445 80.50610352 86.10009766 C86.89005232 114.54887355 79.58631644 143.14567511 65.1875 167.8125 C48.84845708 193.1507814 23.6190021 211.28410619 -5.90234375 217.90625 C-35.27717826 223.90255873 -64.99985708 219.24283608 -90.29980469 202.97192383 C-114.33036072 186.87217473 -132.13803941 163.35413906 -139 135 C-139.27714844 133.97777344 -139.55429688 132.95554688 -139.83984375 131.90234375 C-146.83784096 102.78164566 -140.20873676 73.29384791 -125 48 C-107.72705099 21.1725998 -81.04549807 3.72104698 -49.98046875 -3.01171875 C-33.30537164 -6.1120578 -16.17840697 -4.82576502 0 0 Z M-102 25 C-102.72832031 25.56976563 -103.45664063 26.13953125 -104.20703125 26.7265625 C-116.15344071 36.49894068 -124.43066727 50.22353525 -131 64 C-131.61101562 65.2684375 -131.61101562 65.2684375 -132.234375 66.5625 C-133.30959803 69.01070012 -134.17434428 71.45668551 -135 74 C-135.37125 75.05445312 -135.7425 76.10890625 -136.125 77.1953125 C-142.1592419 97.60278336 -141.7671998 124.18172763 -134 144 C-133.72704102 144.71269043 -133.45408203 145.42538086 -133.17285156 146.15966797 C-128.22693601 158.80772806 -121.73311363 169.6058824 -113 180 C-112.44570312 180.68964844 -111.89140625 181.37929687 -111.3203125 182.08984375 C-95.69850562 200.96307934 -70.26997807 214.04907826 -46 217 C-41.40119323 217.25615234 -36.81651775 217.33026091 -32.21240234 217.31567383 C-30.13455601 217.31251453 -28.05814037 217.33606246 -25.98046875 217.36132812 C-17.31318597 217.40247843 -9.37063375 216.37028225 -1 214 C-0.29311035 213.81187744 0.4137793 213.62375488 1.14208984 213.42993164 C16.51086166 209.18476941 30.15008097 201.62338317 42 191 C42.67933594 190.46246094 43.35867187 189.92492187 44.05859375 189.37109375 C63.09790666 174.08601156 76.50603701 146.94648484 79.23449707 122.9364624 C79.58522095 118.16584341 79.57293267 113.40522759 79.5 108.625 C79.49446106 107.90765686 79.48892212 107.19031372 79.48321533 106.45123291 C79.3818366 95.22377232 78.54070311 84.7106269 75 74 C74.69449219 73.04867187 74.69449219 73.04867187 74.3828125 72.078125 C65.13098953 43.97999599 43.88350542 22.15481024 17.88574219 8.92529297 C13.03320382 6.54425718 8.14743124 4.63946288 3 3 C1.85789063 2.608125 0.71578125 2.21625 -0.4609375 1.8125 C-35.73682216 -9.05258283 -74.46452534 1.85423869 -102 25 Z " fill="#DBD0E0" transform="translate(169,28)"/>
<path d="M0 0 C6.99199383 6.65092096 6.99199383 6.65092096 8.5625 9.4375 C8.28814357 11.57052467 8.10037051 12.89962949 6.5625 14.4375 C4.3125 14.875 4.3125 14.875 1.5625 14.4375 C-1.125 11.5 -1.125 11.5 -3.4375 8.4375 C-7.49680794 6.40784603 -12.39011306 6.84228768 -16.66796875 8.0859375 C-20.67525263 9.84523286 -23.83177313 11.97931089 -25.8125 16.046875 C-27.58169028 22.81402781 -28.04080121 30.65844456 -24.50390625 36.7890625 C-21.20161554 41.12168883 -21.20161554 41.12168883 -16.4375 43.4375 C-9.96000417 43.91690158 -3.69278159 44.00226731 1.625 39.8125 C4.11067641 38.04847158 5.57654244 38.04461085 8.5625 38.4375 C9.2225 39.0975 9.8825 39.7575 10.5625 40.4375 C10.47178758 43.88457179 9.86473161 45.14390357 7.375 47.5625 C1.34558464 51.58211024 -3.10474841 52.99563389 -10.25 52.9375 C-11.04881592 52.93250488 -11.84763184 52.92750977 -12.6706543 52.92236328 C-19.90977923 52.70807868 -24.63383996 50.96048284 -29.97265625 46.015625 C-36.60144308 38.82638681 -37.2271574 30.9927065 -36.9140625 21.75390625 C-36.362437 14.76613624 -33.6002042 8.71573677 -28.7265625 3.6640625 C-21.04318429 -2.35052768 -8.87860468 -4.0357294 0 0 Z " fill="#F4F4F4" transform="translate(174.4375,110.5625)"/>
<path d="M0 0 C2.5625 0.375 2.5625 0.375 4.3125 2 C7.02489228 7.15354534 6.7001673 12.92234613 6.66015625 18.6171875 C6.6587413 19.38555939 6.65732635 20.15393127 6.65586853 20.94558716 C6.65030683 23.38043239 6.6377616 25.81518294 6.625 28.25 C6.61998004 29.90885283 6.61541801 31.56770712 6.61132812 33.2265625 C6.60034998 37.2760777 6.58311206 41.32552284 6.5625 45.375 C7.20799805 45.35928955 7.85349609 45.3435791 8.51855469 45.32739258 C11.44978029 45.26494198 14.38086579 45.2259777 17.3125 45.1875 C18.32828125 45.16236328 19.3440625 45.13722656 20.390625 45.11132812 C21.3703125 45.10166016 22.35 45.09199219 23.359375 45.08203125 C24.26010742 45.0663208 25.16083984 45.05061035 26.08886719 45.03442383 C29.01558763 45.43738228 30.37591349 46.4405403 32.5625 48.375 C31.6875 53.25 31.6875 53.25 30.5625 54.375 C26.34214095 54.61752825 22.1159618 54.60353321 17.8894043 54.61523438 C15.76896545 54.62491343 13.64950686 54.65591033 11.52929688 54.6875 C10.17969326 54.69403265 8.8300827 54.69928209 7.48046875 54.703125 C6.25094482 54.7124707 5.0214209 54.72181641 3.75463867 54.73144531 C0.23933147 54.33891388 -1.191074 54.11645384 -3.4375 51.375 C-3.78256819 48.77151338 -3.88187798 46.59767255 -3.79296875 44.00390625 C-3.78493729 43.2851683 -3.77690582 42.56643036 -3.76863098 41.82591248 C-3.73963926 39.52902386 -3.6834236 37.23381204 -3.625 34.9375 C-3.58241664 32.64497536 -3.54550743 30.35249533 -3.51350403 28.05979919 C-3.49190569 26.6339395 -3.46329778 25.20816425 -3.42680359 23.78260803 C-3.36045822 20.45826531 -3.48378622 17.56236407 -4.4375 14.375 C-4.55380014 12.33569048 -4.61245341 10.29258454 -4.625 8.25 C-4.63917969 7.19554688 -4.65335937 6.14109375 -4.66796875 5.0546875 C-4.36160792 1.49259379 -3.54764371 0.54579134 0 0 Z " fill="#EBEBEB" transform="translate(100.4375,108.625)"/>
<path d="M0 0 C0.97453125 0.27287842 0.97453125 0.27287842 1.96875 0.55126953 C30.4237774 8.57575937 54.44136761 28.53298807 68.9609375 54.12890625 C74.03601725 63.49482139 77.66979835 73.61355238 80 84 C80.17063965 84.67708008 80.3412793 85.35416016 80.51708984 86.05175781 C82.22460058 93.42736022 82.22997646 100.58284534 82.125 108.125 C82.11597656 109.36765625 82.10695312 110.6103125 82.09765625 111.890625 C82.07429729 114.92729004 82.04154283 117.96353853 82 121 C81.01 120.34 80.02 119.68 79 119 C78.63110352 116.58007813 78.63110352 116.58007813 78.62890625 113.53125 C78.61448486 112.41137695 78.60006348 111.29150391 78.58520508 110.13769531 C78.5777124 108.93725586 78.57021973 107.73681641 78.5625 106.5 C77.89049935 76.5693669 67.451667 50.29546554 46 29 C33.81154475 17.65312857 18.84219122 9.04575645 3 4 C1.85789063 3.608125 0.71578125 3.21625 -0.4609375 2.8125 C-10.29315662 -0.21053286 -20.17492603 -0.37194926 -30.375 -0.375 C-31.06445709 -0.37690338 -31.75391418 -0.37880676 -32.46426392 -0.38076782 C-40.00013843 -0.37841493 -47.27141432 -0.06136648 -54.65478516 1.57568359 C-57.14897143 2.02695319 -59.47077571 2.07024062 -62 2 C-47.3633876 -10.38215788 -16.85404752 -5.027298 0 0 Z " fill="#D7CADE" transform="translate(169,28)"/>
<path d="M0 0 C0.33 0 0.66 0 1 0 C1.88831073 36.04833258 -4.47244644 64.83719803 -30 92 C-44.11649044 106.4694027 -62.47669511 116.76567048 -82 122 C-82.99628418 122.26925293 -82.99628418 122.26925293 -84.01269531 122.54394531 C-92.0004547 124.43815676 -99.97706633 124.22418247 -108.125 124.125 C-109.57291044 124.11494507 -111.02082768 124.10582368 -112.46875 124.09765625 C-115.97931037 124.07585344 -119.48961028 124.04146381 -123 124 C-123 123.67 -123 123.34 -123 123 C-122.42781738 122.98541748 -121.85563477 122.97083496 -121.26611328 122.95581055 C-90.15639316 122.07698735 -61.96834084 116.13208717 -38 95 C-37.3915625 94.53464844 -36.783125 94.06929688 -36.15625 93.58984375 C-15.57232054 77.71497362 -4.59104344 48.8473194 -1 24 C-0.26063501 16.01789983 -0.05381516 8.01318314 0 0 Z " fill="#E7DDE9" transform="translate(249,123)"/>
<path d="M0 0 C-2.6256803 1.33663011 -5.2680814 2.57536672 -7.9765625 3.734375 C-20.61882483 9.20071065 -31.38539143 15.1252031 -42 24 C-42.65484375 24.49628906 -43.3096875 24.99257813 -43.984375 25.50390625 C-58.60091057 37.070297 -71.69055333 58.68558641 -75 77 C-75.99 76.67 -76.98 76.34 -78 76 C-74.87707894 62.76011592 -68.49613318 49.59913645 -60 39 C-59.39067627 38.23478027 -59.39067627 38.23478027 -58.76904297 37.45410156 C-45.35893921 20.73437438 -29.69991328 9.35466202 -10 1 C-9.09121094 0.60039062 -8.18242188 0.20078125 -7.24609375 -0.2109375 C-4.47250133 -1.18531258 -2.78793372 -0.79655249 0 0 Z " fill="#DFD5E2" transform="translate(109,30)"/>
<path d="M0 0 C10.54874625 4.57563139 17.20876476 20.36826909 21.3125 30.625 C23.63670907 36.6360967 25.58884991 42.71005662 27 49 C27.17063965 49.67708008 27.3412793 50.35416016 27.51708984 51.05175781 C29.22460058 58.42736022 29.22997646 65.58284534 29.125 73.125 C29.11597656 74.36765625 29.10695312 75.6103125 29.09765625 76.890625 C29.07429729 79.92729004 29.04154283 82.96353853 29 86 C27.515 85.01 27.515 85.01 26 84 C25.63110352 81.58007812 25.63110352 81.58007812 25.62890625 78.53125 C25.61448486 77.41137695 25.60006348 76.29150391 25.58520508 75.13769531 C25.5777124 73.93725586 25.57021973 72.73681641 25.5625 71.5 C25.00998146 46.89105102 18.54391967 23.68340752 2.19140625 4.66015625 C0 2 0 2 0 0 Z " fill="#DED2E2" transform="translate(222,63)"/>
<path d="M0 0 C2.9375 2.125 2.9375 2.125 5 5 C5 8.28952034 4.71648905 10.12067253 2.625 12.6875 C1.820625 13.3371875 1.820625 13.3371875 1 14 C0.484375 14.556875 -0.03125 15.11375 -0.5625 15.6875 C-2 17 -2 17 -4 17 C-5.70779973 15.37550757 -7.37550757 13.70779973 -9 12 C-9.33 11.67 -9.66 11.34 -10 11 C-10.36395977 7.14202645 -10.56007535 4.84011302 -8.375 1.5625 C-5.24316508 -0.49791771 -3.68455227 -0.6767545 0 0 Z " fill="#E8E8E8" transform="translate(63,122)"/>
<path d="M0 0 C2.9375 2.125 2.9375 2.125 5 5 C5.125 8.0625 5.125 8.0625 4 11 C1.5 13.25 1.5 13.25 -1 15 C-1.33 15.66 -1.66 16.32 -2 17 C-4 17 -4 17 -5.5078125 15.6796875 C-8.16980822 12.7090546 -9.84442034 10.79345626 -10.625 6.8125 C-9.31326603 0.90969712 -5.86194737 -1.07668421 0 0 Z " fill="#E9E9E9" transform="translate(219,122)"/>
<path d="M0 0 C9.24 0 18.48 0 28 0 C28.33 0.99 28.66 1.98 29 3 C28.236875 3.0825 27.47375 3.165 26.6875 3.25 C23.86320206 3.70887887 23.86320206 3.70887887 22.76953125 6.015625 C21 8 21 8 17.75 8.53125 C16.5125 8.5209375 15.275 8.510625 14 8.5 C12.7625 8.5103125 11.525 8.520625 10.25 8.53125 C7 8 7 8 5.19921875 6.015625 C4.80347656 5.35046875 4.40773438 4.6853125 4 4 C1.90584196 3.20376178 1.90584196 3.20376178 0 3 C0 2.01 0 1.02 0 0 Z " fill="#D6D6D6" transform="translate(46,142)"/>
<path d="M0 0 C9.24 0 18.48 0 28 0 C28 0.99 28 1.98 28 3 C27.401875 3.0825 26.80375 3.165 26.1875 3.25 C23.82729747 3.79555192 23.82729747 3.79555192 22.80078125 6.015625 C21 8 21 8 17.75 8.53125 C16.5125 8.5209375 15.275 8.510625 14 8.5 C12.7625 8.5103125 11.525 8.520625 10.25 8.53125 C7 8 7 8 5.19921875 6.015625 C4.80347656 5.35046875 4.40773437 4.6853125 4 4 C1.90584196 3.20376178 1.90584196 3.20376178 0 3 C0 2.01 0 1.02 0 0 Z " fill="#D7D7D7" transform="translate(202,142)"/>
<path d="M0 0 C5.02598788 0.55930622 9.10585274 2.22125445 13.5625 4.5 C14.26213867 4.85602295 14.96177734 5.2120459 15.68261719 5.57885742 C27.75722235 11.87262879 41.30561182 20.45841774 49 32 C48.01 32.33 47.02 32.66 46 33 C44.948125 31.6078125 44.948125 31.6078125 43.875 30.1875 C32.67984651 17.23983417 16.06806366 7.52339688 0 2 C0 1.34 0 0.68 0 0 Z " fill="#E0D7E3" transform="translate(175,31)"/>
<path d="M0 0 C0.66 0 1.32 0 2 0 C-2.52217822 12.57660509 -15.15244009 26.25174292 -26 34 C-28.19140625 33.63671875 -28.19140625 33.63671875 -30 33 C-29.11699219 32.29617187 -28.23398438 31.59234375 -27.32421875 30.8671875 C-17.96993769 23.23582231 -10.45439202 14.99278976 -3.65283203 5.02587891 C-2.47951332 3.31927248 -1.24429848 1.65556745 0 0 Z " fill="#DFD4E2" transform="translate(234,191)"/>
<path d="M0 0 C6.46063513 9.69095269 6.28100705 21.91649359 6.125 33.125 C6.11597656 34.36765625 6.10695312 35.6103125 6.09765625 36.890625 C6.07429729 39.92729004 6.04154283 42.96353853 6 46 C5.01 45.34 4.02 44.68 3 44 C2.59936523 41.46899414 2.59936523 41.46899414 2.55859375 38.28515625 C2.53216797 37.12306641 2.50574219 35.96097656 2.47851562 34.76367188 C2.46498047 33.54228516 2.45144531 32.32089844 2.4375 31.0625 C2.32360437 23.29650561 2.04676685 15.8879978 0.43432617 8.27197266 C-0.09772196 5.48881361 -0.15271269 2.82518475 0 0 Z " fill="#BCB3C2" transform="translate(245,103)"/>
<path d="M0 0 C-2.6256803 1.33663011 -5.2680814 2.57536672 -7.9765625 3.734375 C-21.67127226 9.58922615 -21.67127226 9.58922615 -34.1328125 17.66796875 C-36 19 -36 19 -38 19 C-34.85818374 10.54701814 -21.21087403 5.97243614 -13.5 2.4375 C-12.73494141 2.07881836 -11.96988281 1.72013672 -11.18164062 1.35058594 C-7.10912845 -0.45203088 -4.41129518 -1.60172027 0 0 Z " fill="#E0D6E3" transform="translate(109,30)"/>
<path d="M0 0 C6.62410439 1.25435168 13.09964409 1.59840897 19.828125 1.7890625 C20.96636719 1.82773438 22.10460937 1.86640625 23.27734375 1.90625 C26.04412279 1.99925098 28.81091617 2.08509111 31.578125 2.1640625 C32.073125 3.6490625 32.073125 3.6490625 32.578125 5.1640625 C17.968699 5.64769514 4.68488262 5.15385253 -9.421875 1.1640625 C-5.9480013 -1.03646596 -3.9593962 -0.84882669 0 0 Z " fill="#B8ADBF" transform="translate(116.421875,242.8359375)"/>
<path d="M0 0 C3.2950906 2.66699415 4.24772771 5.83909991 5.6875 9.75 C8.77715558 17.88823723 12.75914817 25.41167375 17 33 C16.01 33 15.02 33 14 33 C0 9.93908629 0 9.93908629 0 0 Z " fill="#E4D9E7" transform="translate(32,166)"/>
<path d="M0 0 C-9.14696132 6.09797421 -20.68671461 5.38275254 -31.25 5.1875 C-32.68878789 5.17240782 -34.1275913 5.15872752 -35.56640625 5.14648438 C-39.04460085 5.11387918 -42.52219625 5.06235489 -46 5 C-46 4.67 -46 4.34 -46 4 C-45.42781738 3.98541748 -44.85563477 3.97083496 -44.26611328 3.95581055 C-33.3059364 3.64619485 -22.59619793 3.09282947 -11.81298828 1.01635742 C-7.8087009 0.24914544 -4.07791671 -0.14655013 0 0 Z " fill="#F0EAF1" transform="translate(172,242)"/>
<path d="M0 0 C0.33 0 0.66 0 1 0 C1.01458252 0.7748877 1.02916504 1.54977539 1.04418945 2.34814453 C1.22858993 22.40078125 1.22858993 22.40078125 5 42 C3.515 42.495 3.515 42.495 2 43 C-0.67453885 32.8909673 -1.28858874 24.07224144 -0.6875 13.625 C-0.62398845 12.29174483 -0.5621327 10.95840972 -0.50195312 9.625 C-0.35078112 6.41550212 -0.18327516 3.20779678 0 0 Z " fill="#C1B8C4" transform="translate(29,125)"/>
<path d="M0 0 C2.5 0.25 2.5 0.25 4.5 2.25 C4.17028521 5.54714793 3.8773161 6.8726839 1.5 9.25 C-3.05555556 8.69444444 -3.05555556 8.69444444 -4.5 7.25 C-4.6875 4.8125 -4.6875 4.8125 -4.5 2.25 C-2.5 0.25 -2.5 0.25 0 0 Z " fill="#717171" transform="translate(216.5,124.75)"/>
<path d="M0 0 C1.2375 0.1546875 1.2375 0.1546875 2.5 0.3125 C4.5 3.3125 4.5 3.3125 4.25 5.375 C3.5 7.3125 3.5 7.3125 1.5 9.3125 C-3.05555556 8.75694444 -3.05555556 8.75694444 -4.5 7.3125 C-4.6875 4.875 -4.6875 4.875 -4.5 2.3125 C-2.5 0.3125 -2.5 0.3125 0 0 Z " fill="#747474" transform="translate(60.5,124.6875)"/>
<path d="M0 0 C1.29035156 0.05671875 2.58070313 0.1134375 3.91015625 0.171875 C7.06576439 0.31212425 10.22042506 0.46340707 13.375 0.625 C13.375 0.955 13.375 1.285 13.375 1.625 C12.64498779 1.64481934 11.91497559 1.66463867 11.1628418 1.68505859 C7.79575166 1.78140565 4.42919141 1.89063266 1.0625 2 C-0.08541016 2.0309375 -1.23332031 2.061875 -2.41601562 2.09375 C-8.83305633 2.31189303 -14.9288447 2.86233459 -21.21166992 4.20947266 C-23.72814643 4.64275976 -26.07661465 4.69488104 -28.625 4.625 C-20.57485889 -2.00653392 -9.82164131 -0.50574878 0 0 Z " fill="#BDB5BD" transform="translate(135.625,25.375)"/>
<path d="M0 0 C1.39572052 -0.02736707 2.79160221 -0.04655989 4.1875 -0.0625 C4.96480469 -0.07410156 5.74210937 -0.08570313 6.54296875 -0.09765625 C9 0 9 0 11.21289062 0.48632812 C14.51557702 1.09502225 17.69372456 1.21640882 21.05078125 1.31640625 C21.70958786 1.33718735 22.36839447 1.35796844 23.04716492 1.37937927 C25.13551185 1.44435489 27.22397612 1.50351575 29.3125 1.5625 C30.7350378 1.60573479 32.15756406 1.6493506 33.58007812 1.69335938 C37.05326297 1.79998216 40.52657726 1.90139348 44 2 C44 2.33 44 2.66 44 3 C38.37665694 3.0741916 32.7535992 3.12862179 27.12988281 3.16479492 C25.21707191 3.17987558 23.30429554 3.2003431 21.39160156 3.22631836 C18.6411893 3.26273347 15.89123446 3.27973349 13.140625 3.29296875 C12.28631897 3.30845261 11.43201294 3.32393646 10.55181885 3.33988953 C4.57847304 3.34158031 4.57847304 3.34158031 1.42871094 1.48168945 C0.95723633 0.99273193 0.48576172 0.50377441 0 0 Z " fill="#2C0943" transform="translate(111,246)"/>
<path d="M0 0 C0.66 0.66 1.32 1.32 2 2 C-5.43089574 10.2500496 -13.0870592 18.21134622 -21 26 C-21.66 25.34 -22.32 24.68 -23 24 C-22.30777344 23.41605469 -22.30777344 23.41605469 -21.6015625 22.8203125 C-13.58969993 15.9484778 -5.79397797 8.88409955 0 0 Z " fill="#E5D7EB" transform="translate(244,213)"/>
<path d="M0 0 C1.9375 0.6875 1.9375 0.6875 4 2 C4.9375 4.375 4.9375 4.375 5 7 C3.6875 9.3125 3.6875 9.3125 2 11 C1.34 11 0.68 11 0 11 C-2.1642235 7.75366476 -2.37569856 6.75698557 -2 3 C-1.34 2.01 -0.68 1.02 0 0 Z " fill="#BCBCBC" transform="translate(134,211)"/>
<path d="M0 0 C4.03420177 0.55224572 6.12391234 2.60438981 9.0625 5.3125 C9.91972656 6.09238281 10.77695313 6.87226562 11.66015625 7.67578125 C13.68454322 9.68664978 15.37096946 11.66594641 17 14 C16.01 14.33 15.02 14.66 14 15 C13.175 13.989375 12.35 12.97875 11.5 11.9375 C8.46756997 8.37548291 5.12448108 5.37737559 1.5390625 2.3828125 C1.03117188 1.92648438 0.52328125 1.47015625 0 1 C0 0.67 0 0.34 0 0 Z " fill="#DACFDF" transform="translate(207,49)"/>
<path d="M0 0 C4.91073881 2.06823773 7.05669203 5.7330256 10 10 C10.639375 10.9075 11.27875 11.815 11.9375 12.75 C13.20113775 15.42593877 12.8341107 16.26181592 12 19 C11.55269531 18.27554688 11.10539063 17.55109375 10.64453125 16.8046875 C6.67336456 10.39087381 6.67336456 10.39087381 2.0625 4.4375 C0 2 0 2 0 0 Z " fill="#E6DDE8" transform="translate(222,63)"/>
<path d="M0 0 C2.31 0 4.62 0 7 0 C7 0.66 7 1.32 7 2 C10.465 1.505 10.465 1.505 14 1 C13.34 2.65 12.68 4.3 12 6 C13.32 6.33 14.64 6.66 16 7 C15.67 7.66 15.34 8.32 15 9 C10.05 6.69 5.1 4.38 0 2 C0 1.34 0 0.68 0 0 Z " fill="#361451" transform="translate(181,31)"/>
<path d="M0 0 C-5.10319795 4.09196518 -10.99042043 7.20755721 -17.625 6.75 C-18.40875 6.5025 -19.1925 6.255 -20 6 C-16.56660335 4.20316097 -13.03805836 2.74207323 -9.4375 1.3125 C-7.73400391 0.62607422 -7.73400391 0.62607422 -5.99609375 -0.07421875 C-3 -1 -3 -1 0 0 Z " fill="#DED4E0" transform="translate(188,236)"/>
<path d="M0 0 C0.66 0.99 1.32 1.98 2 3 C1.35546875 5.3046875 1.35546875 5.3046875 0.1875 7.875 C-1.32972254 11.26156499 -2.38881148 14.33286888 -3 18 C-3.99 17.67 -4.98 17.34 -6 17 C-4.33846988 11.14340094 -2.52958084 5.5409866 0 0 Z " fill="#D5CBD8" transform="translate(37,89)"/>
<path d="M0 0 C0.66 0 1.32 0 2 0 C0.65072455 4.53847198 -1.19159348 8.31932246 -3.625 12.375 C-4.25664063 13.43460938 -4.88828125 14.49421875 -5.5390625 15.5859375 C-6.02117188 16.38257812 -6.50328125 17.17921875 -7 18 C-7.67578125 16.34765625 -7.67578125 16.34765625 -8 14 C-6.85546875 11.30859375 -6.85546875 11.30859375 -5.1875 8.4375 C-4.37345703 7.01244141 -4.37345703 7.01244141 -3.54296875 5.55859375 C-2.40827883 3.67701932 -1.21880693 1.82821039 0 0 Z " fill="#E5DBE9" transform="translate(46,73)"/>
<path d="M0 0 C0.33 0.66 0.66 1.32 1 2 C0.01 3.485 0.01 3.485 -1 5 C-1.66 5 -2.32 5 -3 5 C-3 5.66 -3 6.32 -3 7 C-3.99 7 -4.98 7 -6 7 C-6.33 7.99 -6.66 8.98 -7 10 C-8.98 10.33 -10.96 10.66 -13 11 C-9.0299782 6.78185183 -4.69159716 3.38772897 0 0 Z " fill="#381951" transform="translate(66,27)"/>
<path d="M0 0 C1.98 0 3.96 0 6 0 C6 0.66 6 1.32 6 2 C4.68 2 3.36 2 2 2 C2 2.66 2 3.32 2 4 C3.32 4 4.64 4 6 4 C5.50168276 7.68754757 4.89932357 9.60490662 2 12 C2.33 10.02 2.66 8.04 3 6 C2.01 6 1.02 6 0 6 C0 4.02 0 2.04 0 0 Z " fill="#D9D9D9" transform="translate(147,211)"/>
<path d="M0 0 C1.31052767 4.30422506 0.45785552 7.9370534 -0.4375 12.25 C-0.58509766 12.99507812 -0.73269531 13.74015625 -0.88476562 14.5078125 C-1.2488694 16.34007665 -1.62341409 18.17026053 -2 20 C-4 18 -4 18 -4.046875 15.86328125 C-2.49046794 2.49046794 -2.49046794 2.49046794 0 0 Z " fill="#E9DFEC" transform="translate(32,105)"/>
<path d="M0 0 C0.66 0.99 1.32 1.98 2 3 C1.58447266 4.99291992 1.58447266 4.99291992 0.6640625 7.23046875 C0.34179688 8.03291016 0.01953125 8.83535156 -0.3125 9.66210938 C-0.8384375 10.91217773 -0.8384375 10.91217773 -1.375 12.1875 C-1.71789062 13.03248047 -2.06078125 13.87746094 -2.4140625 14.74804688 C-3.26394691 16.83734605 -4.12622936 18.92060303 -5 21 C-6.11270523 17.24790052 -5.70163718 15.64431827 -4.0625 12.0625 C-2.43476082 8.49250933 -1.76768481 5.93527848 -2 2 C-1.34 2 -0.68 2 0 2 C0 1.34 0 0.68 0 0 Z " fill="#311149" transform="translate(263,170)"/>
<path d="M0 0 C0.84691406 0.33064453 0.84691406 0.33064453 1.7109375 0.66796875 C-0.41021209 2.17368621 -2.53559865 3.67265554 -4.6640625 5.16796875 C-5.26734375 5.59722656 -5.870625 6.02648438 -6.4921875 6.46875 C-11.0625 9.66796875 -11.0625 9.66796875 -13.2890625 9.66796875 C-11.84369463 6.10117385 -10.09165304 4.48265976 -6.9140625 2.35546875 C-6.14320312 1.82308594 -5.37234375 1.29070313 -4.578125 0.7421875 C-2.2890625 -0.33203125 -2.2890625 -0.33203125 0 0 Z " fill="#E8DEEB" transform="translate(84.2890625,39.33203125)"/>
<path d="M0 0 C5.80342274 1.48805711 10.17590879 4.59097555 15 8 C12 9 12 9 9.08203125 7.63671875 C8.00308594 6.99347656 6.92414063 6.35023438 5.8125 5.6875 C4.72582031 5.05199219 3.63914062 4.41648438 2.51953125 3.76171875 C1.68808594 3.18035156 0.85664062 2.59898437 0 2 C0 1.34 0 0.68 0 0 Z " fill="#E8DDEA" transform="translate(76,227)"/>
<path d="M0 0 C2.0625 1.75 2.0625 1.75 4 4 C3.78842197 6.39788436 3.07207819 7.85584361 2 10 C2.99 10 3.98 10 5 10 C5 10.66 5 11.32 5 12 C3.02 12 1.04 12 -1 12 C-0.33333333 9.33333333 0.33333333 6.66666667 1 4 C0.34 3.67 -0.32 3.34 -1 3 C-0.67 2.01 -0.34 1.02 0 0 Z " fill="#CCCCCC" transform="translate(141,210)"/>
<path d="M0 0 C0.33 0 0.66 0 1 0 C1 1.65 1 3.3 1 5 C1.99 5 2.98 5 4 5 C3.67 6.98 3.34 8.96 3 11 C2.01 10.34 1.02 9.68 0 9 C-0.99 8.67 -1.98 8.34 -3 8 C-1.125 2.25 -1.125 2.25 0 0 Z " fill="#1D1D1D" transform="translate(146,212)"/>
<path d="M0 0 C0.66 0.66 1.32 1.32 2 2 C1.63834656 6.41217199 0.94621815 10.67443132 0 15 C-0.99 14.67 -1.98 14.34 -3 14 C-2.01 9.38 -1.02 4.76 0 0 Z " fill="#D7CDDA" transform="translate(247,153)"/>
<path d="M0 0 C0.66 0 1.32 0 2 0 C1.79375 0.5775 1.5875 1.155 1.375 1.75 C0.91338739 4.51967567 1.57055055 5.64561267 3 8 C1.625 9.5 1.625 9.5 0 11 C-0.66 11 -1.32 11 -2 11 C-1.814375 10.2575 -1.62875 9.515 -1.4375 8.75 C-0.82527572 6.07770627 -0.82527572 6.07770627 -1.5625 3.8125 C-1.706875 3.214375 -1.85125 2.61625 -2 2 C-1.34 1.34 -0.68 0.68 0 0 Z " fill="#CBCBCB" transform="translate(137,50)"/>
<path d="M0 0 C1.36125 0.12375 1.36125 0.12375 2.75 0.25 C1.75 3.25 1.75 3.25 -0.5625 4.5 C-3.34873015 5.2775526 -4.58438378 5.23726527 -7.25 4.25 C-4.83923194 1.28290085 -3.90322061 0.30024774 0 0 Z " fill="#DCDCDC" transform="translate(216.25,121.75)"/>
<path d="M0 0 C0.66 0.33 1.32 0.66 2 1 C2 5 2 5 1 8 C1.33 8.99 1.66 9.98 2 11 C1.34 11 0.68 11 0 11 C-1.6875 9.3125 -1.6875 9.3125 -3 7 C-2.75925978 3.62963689 -2.41201979 2.41201979 0 0 Z " fill="#D6D6D6" transform="translate(132,50)"/>
<path d="M0 0 C0.99 0.33 1.98 0.66 3 1 C0.14723863 3.93200474 -2.65079784 6.64315404 -6 9 C-6.66 8.34 -7.32 7.68 -8 7 C-6.74057614 5.80040625 -5.46704714 4.61560557 -4.1875 3.4375 C-3.12595703 2.44556641 -3.12595703 2.44556641 -2.04296875 1.43359375 C-1.36878906 0.96050781 -0.69460937 0.48742188 0 0 Z " fill="#D7CADA" transform="translate(69,48)"/>
<path d="M0 0 C-0.33 0.99 -0.66 1.98 -1 3 C-2.2065625 3.4640625 -2.2065625 3.4640625 -3.4375 3.9375 C-6.14157493 4.76608159 -6.14157493 4.76608159 -7.3125 7.125 C-7.539375 7.74375 -7.76625 8.3625 -8 9 C-8.33 6.69 -8.66 4.38 -9 2 C-5.5647952 -0.29013653 -4.014669 -0.17842973 0 0 Z " fill="#D5D5D5" transform="translate(63,122)"/>
<path d="M0 0 C-1.01953125 1.48828125 -1.01953125 1.48828125 -3 3 C-5.64996326 3.2172101 -8.05076558 3.28351554 -10.6875 3.1875 C-11.38939453 3.17396484 -12.09128906 3.16042969 -12.81445312 3.14648438 C-14.54329829 3.11120182 -16.27174765 3.05739583 -18 3 C-18 2.67 -18 2.34 -18 2 C-16.12612523 1.6603981 -14.25083303 1.32861309 -12.375 1 C-11.33085937 0.814375 -10.28671875 0.62875 -9.2109375 0.4375 C-6.09425135 0.01284203 -3.14069188 -0.07545206 0 0 Z " fill="#452759" transform="translate(167,245)"/>
<path d="M0 0 C3 0 3 0 4.4375 1.3125 C5.2109375 2.1478125 5.2109375 2.1478125 6 3 C6.721875 3.515625 7.44375 4.03125 8.1875 4.5625 C9.0846875 5.2740625 9.0846875 5.2740625 10 6 C10 6.66 10 7.32 10 8 C6.40094092 7.44449305 5.00090201 6.25112752 2.75 3.4375 C2.22921875 2.79683594 1.7084375 2.15617187 1.171875 1.49609375 C0.78515625 1.00238281 0.3984375 0.50867187 0 0 Z " fill="#2B0844" transform="translate(215,53)"/>
<path d="M0 0 C1.18142578 0.13148437 1.18142578 0.13148437 2.38671875 0.265625 C3.33998047 0.50539063 3.33998047 0.50539063 4.3125 0.75 C4.6425 1.41 4.9725 2.07 5.3125 2.75 C0.4791528 2.83333357 -3.92442563 2.70261487 -8.6875 1.75 C-5.5633675 -0.1087516 -3.59432466 -0.45151847 0 0 Z " fill="#E7DEE9" transform="translate(157.6875,25.25)"/>
<path d="M0 0 C0.99 0.33 1.98 0.66 3 1 C4.1875 3.5625 4.1875 3.5625 5 6 C4.01 6.99 3.02 7.98 2 9 C0.21742529 5.76908333 0 3.67481998 0 0 Z " fill="#1F1F1F" transform="translate(132,52)"/>
<path d="M0 0 C0.99 0.33 1.98 0.66 3 1 C3 2.98 3 4.96 3 7 C2.01 7.495 2.01 7.495 1 8 C0.01 6.35 -0.98 4.7 -2 3 C-1.34 2.01 -0.68 1.02 0 0 Z " fill="#101010" transform="translate(139,50)"/>
<path d="M0 0 C-4.83646298 3.22430866 -7.26939984 3.09242903 -13 3 C-9.39091002 -0.60908998 -4.88215348 -0.11353845 0 0 Z " fill="#EDE3F1" transform="translate(172,242)"/>
<path d="M0 0 C0.99 0 1.98 0 3 0 C3 0.66 3 1.32 3 2 C2.01 2.495 2.01 2.495 1 3 C0.67 3.99 0.34 4.98 0 6 C0.99 6.33 1.98 6.66 3 7 C1.0625 7.5625 1.0625 7.5625 -1 8 C-2 7 -2 7 -2.1875 4.5625 C-2 2 -2 2 0 0 Z " fill="#232323" transform="translate(58,125)"/>
<path d="M0 0 C2.46800047 1.15173355 4.04783565 2.04783565 6 4 C5.67 4.99 5.34 5.98 5 7 C2.5 5.1875 2.5 5.1875 0 3 C0 2.01 0 1.02 0 0 Z " fill="#341451" transform="translate(221,35)"/>
<path d="M0 0 C-3.94444444 2.62962963 -3.94444444 2.62962963 -7 3 C-9.25 2.0625 -9.25 2.0625 -11 1 C-3.57142857 -1.42857143 -3.57142857 -1.42857143 0 0 Z " fill="#D1C7D2" transform="translate(179,240)"/>
<path d="M0 0 C0.99 0.33 1.98 0.66 3 1 C3 1.99 3 2.98 3 4 C3.99 4.33 4.98 4.66 6 5 C6 5.66 6 6.32 6 7 C1.125 6.125 1.125 6.125 0 5 C-0.04063832 3.33382885 -0.042721 1.66611905 0 0 Z " fill="#212121" transform="translate(212,127)"/>
<path d="M0 0 C0.66 0.33 1.32 0.66 2 1 C0.88121617 2.17262904 -0.24523051 3.33795138 -1.375 4.5 C-2.00148438 5.1496875 -2.62796875 5.799375 -3.2734375 6.46875 C-5 8 -5 8 -7 8 C-6.67 7.01 -6.34 6.02 -6 5 C-5.34 5 -4.68 5 -4 5 C-3.67 4.01 -3.34 3.02 -3 2 C-2.01 1.34 -1.02 0.68 0 0 Z " fill="#2A0942" transform="translate(63,51)"/>
<path d="M0 0 C1.14926266 0.95421808 2.29430541 1.91352045 3.4375 2.875 C4.07558594 3.40867188 4.71367187 3.94234375 5.37109375 4.4921875 C7 6 7 6 8 8 C6.35 7.67 4.7 7.34 3 7 C3 6.34 3 5.68 3 5 C2.505 4.505 2.01 4.01 1.5 3.5 C1.005 3.005 0.51 2.51 0 2 C0 1.34 0 0.68 0 0 Z " fill="#2A0A45" transform="translate(227,40)"/>
<path d="M0 0 C0 0.33 0 0.66 0 1 C-8.42857143 2.28571429 -8.42857143 2.28571429 -13 1 C-13 0.67 -13 0.34 -13 0 C-8.37078475 -1.0161692 -4.65537393 -0.83796731 0 0 Z " fill="#D8CDDE" transform="translate(128,26)"/>
<path d="M0 0 C0.6875 1.8125 0.6875 1.8125 1 4 C-0.25 5.75 -0.25 5.75 -2 7 C-2.99 7 -3.98 7 -5 7 C-3.70700306 4.11562221 -2.34058637 2.12780579 0 0 Z " fill="#3A1952" transform="translate(43,47)"/>
<path d="M0 0 C0.66 0.33 1.32 0.66 2 1 C0 4 0 4 -3.125 4.6875 C-4.07375 4.790625 -5.0225 4.89375 -6 5 C-6 4.34 -6 3.68 -6 3 C-4.03533587 1.93224776 -2.03144641 0.93446535 0 0 Z " fill="#2C0B44" transform="translate(182,256)"/>
<path d="M0 0 C7.75 0.75 7.75 0.75 10 3 C3.47692308 3.36923077 3.47692308 3.36923077 1.0625 1.5 C0.5365625 0.7575 0.5365625 0.7575 0 0 Z " fill="#EADFEB" transform="translate(101,240)"/>
<path d="M0 0 C0.99 0 1.98 0 3 0 C3.98120464 3.05263664 3.98120464 4.94736336 3 8 C0 3.375 0 3.375 0 0 Z " fill="#371751" transform="translate(21,191)"/>
<path d="M0 0 C0.66 0.33 1.32 0.66 2 1 C2 1.66 2 2.32 2 3 C-2.625 5.125 -2.625 5.125 -6 4 C-4.02 2.68 -2.04 1.36 0 0 Z " fill="#32134A" transform="translate(208,224)"/>
<path d="M0 0 C1.65 0 3.3 0 5 0 C4.39816251 2.02045442 3.72693904 4.02111039 3 6 C2.01 6.495 2.01 6.495 1 7 C1.33 5.02 1.66 3.04 2 1 C1.34 0.67 0.68 0.34 0 0 Z " fill="#E2E2E2" transform="translate(148,216)"/>
<path d="M0 0 C0.33 0 0.66 0 1 0 C1 2.31 1 4.62 1 7 C-0.98 7.99 -0.98 7.99 -3 9 C-2.01 6.03 -1.02 3.06 0 0 Z " fill="#44265D" transform="translate(244,173)"/>
<path d="M0 0 C1.61949011 2.57213134 2.04408751 3.67669159 1.625 6.75 C1.41875 7.4925 1.2125 8.235 1 9 C0.01 8.67 -0.98 8.34 -2 8 C-1.34 5.36 -0.68 2.72 0 0 Z " fill="#C9BDCF" transform="translate(33,98)"/>
</svg>
